g ManSurvivor0_Head
v 0.05044758 1.642996 -0.06872173
v 0.0001496151 1.63615 -0.08684897
v 0.0001789927 1.597399 -0.06469671
v 0.04439538 1.602422 -0.04891984
v 0.07342248 1.617524 -0.02309512
v 0.08399915 1.658361 -0.03678604
v 0.09795449 1.672464 -0.01066753
v 0.08752471 1.634358 0.006607704
v 0.07403944 1.656569 0.05631808
v 0.08062049 1.69535 0.0476217
v 0.06995568 1.705134 0.09083917
v 0.06390347 1.675225 0.09695014
v 0.04257384 1.688945 0.1240676
v 0.03934208 1.721175 0.1223929
v 0.06698833 1.740771 0.0779415
v 0.07888709 1.727609 0.04820929
v 0.07030823 1.773911 0.02570448
v 0.05320927 1.784047 0.04779799
v 0.03249662 1.816247 -0.0002083778
v 0.0393127 1.810107 -0.0198046
v 0.03731488 1.751906 0.1069098
v 0.02923547 1.792714 0.06586646
v 0.0001202375 1.728608 0.1314125
v 0.0001202375 1.755843 0.1122863
v 0.0001202375 1.796798 0.07047907
v 0.04113423 1.804202 -0.0393127
v 0.07633106 1.761073 -0.01019746
v 0.09016888 1.711245 -0.004585944
v 0.06892739 1.745648 -0.06014287
v 0.08067925 1.700286 -0.05065324
v 0.09178476 1.685772 -0.008317158
v 0.0829121 1.672816 -0.0352583
v 0.04721582 1.739361 -0.08802416
v 0.04054664 1.796064 -0.0560591
v -0.00211262 1.82136 -0.04213314
v 0.02794277 1.786692 -0.0816194
v -0.0015544 1.782578 -0.09387071
v 0.04759776 1.688593 -0.0814725
v 0.0001496151 1.738509 -0.1039773
v 0.0001496151 1.686977 -0.1036835
v 0.0494193 1.664766 -0.06625384
v 0.0001496151 1.656922 -0.0869665
v 0.01754237 1.819656 0.01177853
v -0.00211262 1.821418 0.01856522
v -0.01718438 1.819656 0.01177853
v -0.03216801 1.816247 -0.0002083778
v -0.05296879 1.784047 0.04779799
v -0.07006776 1.773911 0.02570448
v -0.06427997 1.74365 0.08296543
v -0.07864662 1.727609 0.04820929
v -0.08038002 1.69535 0.0476217
v -0.06968582 1.705134 0.09083917
v -0.07376959 1.656569 0.05631808
v -0.063663 1.675225 0.09695014
v -0.03698627 1.751906 0.107233
v -0.03910161 1.721175 0.1223929
v -0.03898408 1.810107 -0.0198046
v -0.028995 1.792714 0.06586646
v -0.04080562 1.804202 -0.0393127
v -0.07609058 1.761073 -0.01019746
v -0.0899284 1.711245 -0.004585944
v -0.06868691 1.745678 -0.06011349
v -0.08043877 1.700286 -0.05062386
v -0.04697535 1.73939 -0.08802416
v -0.04021803 1.796064 -0.0560591
v -0.02761415 1.786692 -0.0816194
v -0.0015544 1.782578 -0.09387071
v -0.04577079 1.691795 -0.08388163
v 0.0001496151 1.738509 -0.1039773
v 0.0001496151 1.686977 -0.1036835
v -0.09154428 1.685772 -0.008317158
v -0.08267163 1.672816 -0.03522892
v -0.04891441 1.660506 -0.06654763
v 0.0001496151 1.656922 -0.0869665
v -0.09771401 1.672464 -0.01066753
v -0.08643223 1.632801 0.004257329
v -0.07309387 1.617524 -0.02309512
v -0.08375867 1.658361 -0.03678604
v -0.05017773 1.642966 -0.06872173
v -0.04406676 1.602422 -0.04891984
v 0.0001789927 1.597399 -0.06469671
v 0.0001496151 1.63615 -0.08684897
v -0.09154428 1.685772 -0.008317158
v -0.09771401 1.672464 -0.01066753
v -0.08375867 1.658361 -0.03678604
v -0.08267163 1.672816 -0.03522892
v -0.04891441 1.660506 -0.06654763
v -0.05017773 1.642966 -0.06872173
v 0.0001496151 1.63615 -0.08684897
v 0.0001496151 1.656922 -0.0869665
v -0.07864662 1.727609 0.04820929
v -0.04233336 1.688945 0.1240676
v 0.0001202375 1.694381 0.1366127
v 0.07888709 1.727609 0.04820929
v 0.09178476 1.685772 -0.008317158
v 0.09795449 1.672464 -0.01066753
v 0.0829121 1.672816 -0.0352583
v 0.08399915 1.658361 -0.03678604
v 0.0494193 1.664766 -0.06625384
v 0.05044758 1.642996 -0.06872173
v 0.0001496151 1.656922 -0.0869665
v 0.0001496151 1.63615 -0.08684897
vt 0.2082601 0.1059457
vt 0.217157 0.1255189
vt 0.2331715 0.1157323
vt 0.2242746 0.09793845
vt 0.214488 0.08192401
vt 0.1975838 0.08904154
vt 0.1895766 0.07836524
vt 0.2020323 0.06768895
vt 0.1833488 0.04811575
vt 0.1708931 0.05879204
vt 0.1557684 0.04455698
vt 0.1628859 0.03477038
vt 0.1433127 0.02765286
vt 0.1361952 0.03832915
vt 0.1486508 0.05790235
vt 0.1602168 0.06501988
vt 0.1477611 0.08192401
vt 0.1388642 0.07658586
vt 0.130857 0.09971783
vt 0.1353055 0.105056
vt 0.1326364 0.05078482
vt 0.1290776 0.0730271
vt 0.1175116 0.03743946
vt 0.1175116 0.05078482
vt 0.1184013 0.0730271
vt 0.1397539 0.1112838
vt 0.1566581 0.09171061
vt 0.1744519 0.08192401
vt 0.1664447 0.1086147
vt 0.1824591 0.09882814
vt 0.1842385 0.08014463
vt 0.1922457 0.08993123
vt 0.1700034 0.1219601
vt 0.1442024 0.116622
vt 0.119291 0.1210704
vt 0.1486508 0.1272983
vt 0.1486508 0.1397539
vt 0.1904663 0.1157323
vt 0.1708931 0.1415333
vt 0.1949148 0.1370849
vt 0.1993632 0.1086147
vt 0.2082601 0.1290776
vt 0.1255189 0.09615906
vt 0.1184013 0.09437968
vt 0.1130632 0.09704875
vt 0.107725 0.1006075
vt 0.09793845 0.07836524
vt 0.08993123 0.08370339
vt 0.08993123 0.05879204
vt 0.07658586 0.06768895
vt 0.06501988 0.06235081
vt 0.07925493 0.04722606
vt 0.0525642 0.0525642
vt 0.07124771 0.03743946
vt 0.1032766 0.0525642
vt 0.09882814 0.03921884
vt 0.1032766 0.1068354
vt 0.107725 0.07391679
vt 0.09971783 0.1130632
vt 0.08192401 0.09526937
vt 0.0632405 0.08637246
vt 0.0730271 0.1121735
vt 0.05612297 0.1032766
vt 0.06946833 0.1246292
vt 0.09526937 0.119291
vt 0.09082092 0.1299673
vt 0.09171061 0.1415333
vt 0.05078482 0.1219601
vt 0.06946833 0.1450921
vt 0.04544668 0.1415333
vt 0.0534539 0.08459308
vt 0.04633637 0.09526937
vt 0.03832915 0.1130632
vt 0.03121162 0.1344158
vt 0.04811575 0.08370339
vt 0.032991 0.07391679
vt 0.0232044 0.08815184
vt 0.04010853 0.09348999
vt 0.03121162 0.1112838
vt 0.0134178 0.1041663
vt 0.006300271 0.1228498
vt 0.0232044 0.1317467
vt 0.0534539 0.08459308
vt 0.04811575 0.08370339
vt 0.04010853 0.09348999
vt 0.04633637 0.09526937
vt 0.03832915 0.1130632
vt 0.03121162 0.1112838
vt 0.0232044 0.1317467
vt 0.03121162 0.1344158
vt 0.07658586 0.06768895
vt 0.09082092 0.02943224
vt 0.116622 0.02409409
vt 0.1602168 0.06501988
vt 0.1842385 0.08014463
vt 0.1895766 0.07836524
vt 0.1922457 0.08993123
vt 0.1975838 0.08904154
vt 0.1993632 0.1086147
vt 0.2082601 0.1059457
vt 0.2082601 0.1290776
vt 0.217157 0.1255189
vn 0.5449708 -0.4290178 -0.7203823
vn 0.003857076 -0.4908594 -0.8712302
vn 0.003857076 -0.4908594 -0.8712302
vn 0.5217801 -0.436748 -0.7328006
vn 0.792337 -0.3749065 -0.4812974
vn 0.8232578 -0.3671763 -0.4329298
vn 0.9778617 -0.1816516 0.1038709
vn 0.9701315 -0.2048422 0.1299406
vn 0.9469409 -0.1043496 0.3039969
vn 0.9546711 -0.03477788 0.2956242
vn 0.8850994 0.08890522 0.4568315
vn 0.9005597 -0.05023825 0.4318198
vn 0.5681614 0.08117509 0.8189037
vn 0.5217801 0.2666998 0.8103189
vn 0.8077974 0.3903829 0.4416611
vn 0.9469409 0.2357789 0.2184291
vn 0.8773692 0.4599546 0.1366203
vn 0.6995747 0.6300189 0.3371518
vn 0.5604311 0.8155437 0.1442412
vn 0.7070987 0.7071147 0
vn 0.4831292 0.5604472 0.6726701
vn 0.4058272 0.753702 0.5169502
vn 0.003857076 0.3285413 0.9444817
vn 0.003857076 0.6454793 0.763768
vn 0.003857076 0.8078134 0.5894256
vn 0.753686 0.6145586 -0.2329704
vn 0.9237503 0.3749225 -0.07822031
vn 0.9778617 0.1816676 -0.103843
vn 0.8541785 0.2589695 -0.4509033
vn 0.8850994 0.00387311 -0.465386
vn 0.9855919 0.01933348 -0.1680322
vn 0.869639 -0.1661912 -0.4648747
vn 0.5604311 0.1120958 -0.8205799
vn 0.7227652 0.552717 -0.4148668
vn -0.00387311 0.9314965 -0.3637296
vn 0.4676688 0.4676849 -0.7500378
vn -0.00387311 0.398113 -0.9173282
vn 0.5372406 -0.2048422 -0.8181762
vn 0.01158726 0.07344484 -0.997232
vn 0.01158726 -0.2280328 -0.9735845
vn 0.5604311 -0.398097 -0.7262477
vn -0.01933348 -0.4831292 -0.8753356
vn 0.3207951 0.908306 0.2684599
vn -0.00387311 0.9392267 0.3432755
vn -0.3440017 0.9005758 0.2657558
vn -0.5604472 0.8078134 0.1825826
vn -0.6995907 0.6300189 0.3371187
vn -0.8773851 0.4599546 0.1365177
vn -0.8000832 0.398113 0.448746
vn -0.9469569 0.2357789 0.2183597
vn -0.9546871 -0.04250807 0.29456
vn -0.8928455 0.07344484 0.4443341
vn -0.9469569 -0.11981 0.2981916
vn -0.9005758 -0.05023825 0.4317863
vn -0.4599546 0.5681773 0.6823608
vn -0.5063357 0.2512393 0.824926
vn -0.7147919 0.6993371 0
vn -0.398113 0.753702 0.5229142
vn -0.7614323 0.6068283 -0.2279917
vn -0.9237664 0.3749225 -0.07803072
vn -0.9778777 0.1816676 -0.1036919
vn -0.8541945 0.2666998 -0.446344
vn -0.8773851 0.00387311 -0.4797711
vn -0.5604472 0.1198261 -0.8194758
vn -0.7305114 0.5449867 -0.4115125
vn -0.4831452 0.4599546 -0.7449916
vn -0.00387311 0.398113 -0.9173282
vn -0.5372566 -0.1893818 -0.8218819
vn 0.01158726 0.07344484 -0.997232
vn 0.01158726 -0.2280328 -0.9735845
vn -0.9856079 0.01933348 -0.1679386
vn -0.8541945 -0.1661912 -0.4926786
vn -0.5604472 -0.3671763 -0.742348
vn -0.01933348 -0.4831292 -0.8753356
vn -0.9701475 -0.1893818 0.1514873
vn -0.9701475 -0.2203026 0.1013935
vn -0.792353 -0.3749065 -0.481271
vn -0.8232738 -0.3671763 -0.4328993
vn -0.5449867 -0.436748 -0.7157099
vn -0.5217962 -0.436748 -0.7327892
vn 0.003857076 -0.4908594 -0.8712302
vn 0.003857076 -0.4908594 -0.8712302
vn -0.8851154 0.3903829 -0.2533218
vn -0.8464644 0.3208112 -0.424945
vn -0.6995907 0.1739374 -0.6930503
vn -0.7382417 0.2125884 -0.6401604
vn -0.4986056 0.09663546 -0.8614256
vn -0.4599546 0.08890522 -0.8834804
vn 0.01931751 0.06571472 -0.9976515
vn 0.02704769 0.06571472 -0.9974718
vn -0.8928455 0.436764 -0.1098368
vn -0.5681773 0.08117509 0.8188926
vn -0.00387311 0.1198261 0.9927874
vn 0.8928295 0.436764 -0.1099664
vn 0.8850994 0.3903829 -0.2533779
vn 0.8464484 0.3208112 -0.4249769
vn 0.7382256 0.1971279 -0.6451073
vn 0.6995747 0.1584769 -0.6967641
vn 0.5063198 0.08890522 -0.8577507
vn 0.4676688 0.08117509 -0.8801684
vn 0.02704769 0.06571472 -0.9974718
vn 0.01931751 0.06571472 -0.9976515
g ManSurvivor0_Head_0
f 3/3/3 2/2/2 1/1/1
f 4/4/4 3/3/3 1/1/1
f 4/4/4 1/1/1 5/5/5
f 1/1/1 6/6/6 5/5/5
f 6/6/6 7/7/7 5/5/5
f 7/7/7 8/8/8 5/5/5
f 8/8/8 7/7/7 9/9/9
f 7/7/7 10/10/10 9/9/9
f 10/10/10 11/11/11 9/9/9
f 11/11/11 12/12/12 9/9/9
f 12/12/12 11/11/11 13/13/13
f 11/11/11 14/14/14 13/13/13
f 15/15/15 11/11/11 10/10/10
f 11/11/11 15/15/15 14/14/14
f 16/16/16 15/15/15 10/10/10
f 7/7/7 16/16/16 10/10/10
f 15/15/15 16/16/16 17/17/17
f 18/18/18 15/15/15 17/17/17
f 19/19/19 18/18/18 17/17/17
f 20/20/20 19/19/19 17/17/17
f 21/21/21 15/15/15 18/18/18
f 15/15/15 21/21/21 14/14/14
f 22/22/22 21/21/21 18/18/18
f 14/14/14 21/21/21 23/23/23
f 21/21/21 24/24/24 23/23/23
f 24/24/24 21/21/21 22/22/22
f 25/25/25 24/24/24 22/22/22
f 26/26/26 20/20/20 17/17/17
f 27/27/27 26/26/26 17/17/17
f 27/27/27 17/17/17 16/16/16
f 28/28/28 27/27/27 16/16/16
f 27/27/27 28/28/28 29/29/29
f 27/27/27 29/29/29 26/26/26
f 28/28/28 30/30/30 29/29/29
f 28/28/28 31/31/31 30/30/30
f 31/31/31 28/28/28 16/16/16
f 31/31/31 32/32/32 30/30/30
f 29/29/29 30/30/30 33/33/33
f 34/34/34 29/29/29 33/33/33
f 29/29/29 34/34/34 26/26/26
f 26/26/26 34/34/34 35/35/35
f 35/35/35 20/20/20 26/26/26
f 36/36/36 34/34/34 33/33/33
f 35/35/35 34/34/34 36/36/36
f 36/36/36 37/37/37 35/35/35
f 30/30/30 38/38/38 33/33/33
f 38/38/38 30/30/30 32/32/32
f 39/39/39 33/33/33 38/38/38
f 39/39/39 37/37/37 36/36/36
f 33/33/33 39/39/39 36/36/36
f 40/40/40 39/39/39 38/38/38
f 38/38/38 41/41/41 40/40/40
f 41/41/41 38/38/38 32/32/32
f 41/41/41 42/42/42 40/40/40
f 43/43/43 19/19/19 35/35/35
f 44/44/44 43/43/43 35/35/35
f 18/18/18 19/19/19 43/43/43
f 22/22/22 18/18/18 43/43/43
f 22/22/22 43/43/43 44/44/44
f 35/35/35 19/19/19 20/20/20
f 25/25/25 22/22/22 44/44/44
f 45/45/45 44/44/44 35/35/35
f 46/46/46 45/45/45 35/35/35
f 46/46/46 47/47/47 45/45/45
f 47/47/47 46/46/46 48/48/48
f 49/49/49 47/47/47 48/48/48
f 50/50/50 49/49/49 48/48/48
f 49/49/49 50/50/50 51/51/51
f 52/52/52 49/49/49 51/51/51
f 52/52/52 51/51/51 53/53/53
f 54/54/54 52/52/52 53/53/53
f 55/55/55 49/49/49 52/52/52
f 49/49/49 55/55/55 47/47/47
f 56/56/56 55/55/55 52/52/52
f 46/46/46 57/57/57 48/48/48
f 55/55/55 58/58/58 47/47/47
f 47/47/47 58/58/58 45/45/45
f 24/24/24 55/55/55 56/56/56
f 24/24/24 25/25/25 58/58/58
f 55/55/55 24/24/24 58/58/58
f 23/23/23 24/24/24 56/56/56
f 57/57/57 59/59/59 48/48/48
f 59/59/59 60/60/60 48/48/48
f 48/48/48 60/60/60 50/50/50
f 60/60/60 61/61/61 50/50/50
f 61/61/61 60/60/60 62/62/62
f 62/62/62 60/60/60 59/59/59
f 63/63/63 61/61/61 62/62/62
f 63/63/63 62/62/62 64/64/64
f 62/62/62 65/65/65 64/64/64
f 65/65/65 62/62/62 59/59/59
f 65/65/65 59/59/59 35/35/35
f 57/57/57 35/35/35 59/59/59
f 65/65/65 66/66/66 64/64/64
f 65/65/65 35/35/35 66/66/66
f 67/67/67 66/66/66 35/35/35
f 68/68/68 63/63/63 64/64/64
f 64/64/64 69/69/69 68/68/68
f 69/69/69 64/64/64 66/66/66
f 67/67/67 69/69/69 66/66/66
f 69/69/69 70/70/70 68/68/68
f 71/71/71 61/61/61 63/63/63
f 50/50/50 61/61/61 71/71/71
f 72/72/72 71/71/71 63/63/63
f 63/63/63 68/68/68 73/73/73
f 72/72/72 63/63/63 73/73/73
f 73/73/73 68/68/68 70/70/70
f 74/74/74 73/73/73 70/70/70
f 46/46/46 35/35/35 57/57/57
f 50/50/50 75/75/75 51/51/51
f 51/51/51 75/75/75 53/53/53
f 75/75/75 76/76/76 53/53/53
f 76/76/76 75/75/75 77/77/77
f 75/75/75 78/78/78 77/77/77
f 78/78/78 79/79/79 77/77/77
f 79/79/79 80/80/80 77/77/77
f 81/81/81 80/80/80 79/79/79
f 82/82/82 81/81/81 79/79/79
f 85/85/85 84/84/84 83/83/83
f 86/86/86 85/85/85 83/83/83
f 86/86/86 87/87/87 85/85/85
f 87/87/87 88/88/88 85/85/85
f 89/89/89 88/88/88 87/87/87
f 90/90/90 89/89/89 87/87/87
f 91/91/91 83/83/83 84/84/84
f 58/58/58 25/25/25 44/44/44
f 45/45/45 58/58/58 44/44/44
f 52/52/52 54/54/54 92/92/92
f 56/56/56 52/52/52 92/92/92
f 56/56/56 92/92/92 93/93/93
f 23/23/23 56/56/56 93/93/93
f 14/14/14 23/23/23 93/93/93
f 13/13/13 14/14/14 93/93/93
f 96/96/96 95/95/95 94/94/94
f 95/95/95 96/96/96 97/97/97
f 96/96/96 98/98/98 97/97/97
f 99/99/99 97/97/97 98/98/98
f 100/100/100 99/99/99 98/98/98
f 99/99/99 100/100/100 101/101/101
f 100/100/100 102/102/102 101/101/101
