g ManBasic0_Head
v -0.04248936 1.606128 -0.0758839
v -3.188848E-06 1.603011 -0.08564542
v 0.003642686 1.63309 -0.07803026
v -0.04237176 1.637471 -0.06235888
v -0.05680825 1.608833 -0.0532148
v -0.07347929 1.645703 -0.03410337
v -0.07718396 1.664021 -0.03180999
v -0.05604379 1.685984 -0.06738666
v -0.02925838 1.684661 -0.08588064
v -0.004031293 1.680898 -0.08917369
v -0.03949034 1.73097 -0.08199956
v -0.00802999 1.734998 -0.08755657
v -0.009176672 1.770604 -0.06550492
v -0.05022214 1.759372 -0.05900703
v -0.06515847 1.749464 -0.04674631
v -0.05951324 1.717445 -0.06641638
v -0.08041821 1.679398 -0.02901679
v -0.08406408 1.686455 -0.02416542
v -0.0856224 1.694511 -0.0131984
v -0.07195038 1.762342 -0.02166624
v -0.08641626 1.700186 0.005119167
v -0.07447897 1.764988 0.004442923
v -0.07195038 1.762342 -0.02166624
v -0.05280954 1.776955 -0.02266591
v -0.07447897 1.764988 0.004442923
v -0.05539693 1.776455 0.007912382
v -0.03975496 1.797566 -0.02484167
v -0.009176672 1.801535 -0.02931081
v -0.0495165 1.811179 0.0201143
v -0.003502049 1.816618 0.02081995
v -0.08403468 1.697069 0.02764126
v -0.07586087 1.760195 0.03816724
v -0.07586087 1.760195 0.03816724
v -0.05669063 1.773397 0.03302186
v -0.04975171 1.809415 0.07709576
v -3.188848E-06 1.810973 0.0816825
v -0.08068283 1.696275 0.05213329
v -0.07321467 1.754256 0.05560274
v -0.05583797 1.768781 0.05016334
v -0.07027444 1.69651 0.05648482
v -0.06348254 1.722149 0.07474358
v -0.07139173 1.663639 0.04751715
v -0.07691935 1.662433 0.04498856
v -0.06983341 1.645497 0.04701731
v -0.05219209 1.763547 0.06210063
v -0.07594907 1.66602 0.03710876
v -0.07127413 1.648643 0.02914077
v -0.07324407 1.658052 0.03102251
v -0.07356749 1.670225 0.03069909
v -0.07577266 1.682074 0.02058473
v -0.07830125 1.687013 0.00764776
v -0.07662533 1.683897 -0.004936382
v -0.07597847 1.672283 -0.009052694
v -0.07347929 1.645703 -0.03410337
v -0.07533163 1.657405 -0.009758346
v -0.07083309 1.638764 3.188848E-06
v -0.05680825 1.608833 -0.0532148
v -0.0588664 1.598689 -0.01825558
v -0.06801048 1.631884 0.01076439
v -0.05669063 1.773397 0.03302186
v -0.05539693 1.776455 0.007912382
v -0.0495165 1.811179 0.0201143
v -0.04975171 1.809415 0.07709576
v -0.05280954 1.776955 -0.02266591
v -0.03975496 1.797566 -0.02484167
v -0.05022214 1.759372 -0.05900703
v -0.05583797 1.768781 0.05016334
v -0.03860828 1.792009 0.1167887
v -0.04490034 1.763871 0.1056453
v -0.03311007 1.763871 0.1197584
v -0.05219209 1.763547 0.06210063
v -0.04225415 1.74814 0.09188507
v -0.0254655 1.745259 0.1121432
v -3.188848E-06 1.810973 0.0816825
v -0.03272784 1.8377 0.07665473
v 0.0008200705 1.794096 0.1196702
v -0.03860828 1.792009 0.1167887
v -0.03719698 1.595425 -0.04630528
v -0.04248936 1.606128 -0.0758839
v -0.05680825 1.608833 -0.0532148
v -0.0588664 1.598689 -0.01825558
v -3.188848E-06 1.594426 -0.05494953
v -3.188848E-06 1.603011 -0.08564542
v 0.05500833 1.615801 -0.07582509
v 0.03745522 1.595425 -0.04630528
v 0.07653074 1.612832 -0.0531854
v 0.05912464 1.598689 -0.01825558
v -0.03860828 1.792009 0.1167887
v 0.0008200705 1.794096 0.1196702
v 0.0004966483 1.763871 0.126021
v -0.03311007 1.763871 0.1197584
v -0.0254655 1.745259 0.1121432
v 0.0001144186 1.742701 0.1182
v -0.03272784 1.8377 0.07665473
v 0.05500833 1.615801 -0.07582509
v 0.04312984 1.634913 -0.05888942
v 0.07653074 1.612832 -0.0531854
v 0.07079731 1.633148 -0.02340096
v 0.07553107 1.667755 -0.02857575
v 0.05603741 1.67784 -0.06447584
v 0.026547 1.679722 -0.08244058
v 0.02560613 1.730705 -0.08241118
v 0.04336506 1.758696 -0.05662545
v 0.07123835 1.740084 -0.04821642
v 0.05950687 1.717445 -0.06641638
v 0.0786183 1.682427 -0.03133956
v 0.0825876 1.694775 -0.02684102
v 0.08420472 1.703243 -0.01607981
v 0.07670715 1.752962 -0.02354798
v 0.08502798 1.707448 0.002090745
v 0.0785301 1.754139 -0.004348338
v 0.07670715 1.752962 -0.02354798
v 0.06185904 1.770633 -0.02222487
v 0.0785301 1.754139 -0.004348338
v 0.06306453 1.771339 0.01305777
v 0.0532148 1.78554 -0.02454765
v 0.05559637 1.795037 0.01937924
v -0.003502049 1.816618 0.02081995
v 0.08285221 1.706536 0.02426001
v 0.07905933 1.753374 0.01676244
v 0.07905933 1.753374 0.01676244
v 0.06118279 1.768987 0.04098986
v 0.05068621 1.796625 0.06207123
v -3.188848E-06 1.810973 0.0816825
v 0.07973558 1.70192 0.0456648
v 0.07697178 1.74423 0.05069259
v 0.0008200705 1.794096 0.1196702
v 0.05800736 1.762107 0.06454103
v 0.07697178 1.74423 0.05069259
v 0.07053269 1.69651 0.05648482
v 0.06771009 1.731175 0.05733748
v 0.07164998 1.663639 0.04751715
v 0.07691297 1.662433 0.04498856
v 0.07009166 1.645497 0.04701731
v 0.05033338 1.750698 0.08080044
v 0.06771009 1.731175 0.05733748
v 0.0759427 1.663286 0.03540344
v 0.07150297 1.648643 0.02914077
v 0.07350232 1.658052 0.03102251
v 0.07382574 1.670225 0.03069909
v 0.0760015 1.682074 0.02058473
v 0.0785595 1.687013 0.00764776
v 0.07688357 1.683897 -0.004936382
v 0.07620732 1.672283 -0.009052694
v 0.07079731 1.633148 -0.02340096
v 0.07556047 1.657405 -0.009758346
v 0.07106193 1.638764 3.188848E-06
v 0.05912464 1.598689 -0.01825558
v 0.06826872 1.631884 0.01076439
v 0.07653074 1.612832 -0.0531854
v 0.06118279 1.768987 0.04098986
v 0.05068621 1.796625 0.06207123
v 0.05559637 1.795037 0.01937924
v 0.06306453 1.771339 0.01305777
v 0.06185904 1.770633 -0.02222487
v 0.05800736 1.762107 0.06454103
v 0.03810206 1.785158 0.09591317
v 0.03954277 1.763871 0.1048808
v 0.03254505 1.763871 0.1111435
v 0.04163033 1.744289 0.09785372
v 0.02569433 1.745259 0.1121726
v 0.05033338 1.750698 0.08080044
v 0.03810206 1.785158 0.09591317
v 0.0004966483 1.763871 0.126021
v 0.03254505 1.763871 0.1111435
v 0.0001144186 1.742701 0.1182
v 0.02569433 1.745259 0.1121726
vt 0.1248348 0.02452295
vt 0.1056447 0.0262675
vt 0.1056447 0.04109621
vt 0.1309407 0.03847938
vt 0.1370467 0.02103384
vt 0.1536199 0.03847938
vt 0.1579813 0.04720215
vt 0.1405358 0.06203086
vt 0.1257071 0.06377541
vt 0.1134952 0.06377541
vt 0.1335576 0.08471006
vt 0.1196011 0.08819917
vt 0.1239625 0.106517
vt 0.1457694 0.09953877
vt 0.1544922 0.09168828
vt 0.1440249 0.07685956
vt 0.1614704 0.05418036
vt 0.1649595 0.05766947
vt 0.1710655 0.06115858
vt 0.1675764 0.09604966
vt 0.1797882 0.06290314
vt 0.1806605 0.09692194
vt 0.1675764 0.09604966
vt 0.1658318 0.1082615
vt 0.1806605 0.09692194
vt 0.1824051 0.1073893
vt 0.1431526 0.1265793
vt 0.1274516 0.1283239
vt 0.1501308 0.1483863
vt 0.1283239 0.1527477
vt 0.1911279 0.06203086
vt 0.1963615 0.09343283
vt 0.1963615 0.09343283
vt 0.1954892 0.1056447
vt 0.1553645 0.1762991
vt 0.1300685 0.1806605
vt 0.204212 0.06203086
vt 0.2050843 0.090816
vt 0.2050843 0.1021556
vt 0.2094457 0.06203086
vt 0.2172962 0.07685956
vt 0.2050843 0.04545759
vt 0.2024675 0.04545759
vt 0.204212 0.03673482
vt 0.2129348 0.09953877
vt 0.1981061 0.04632987
vt 0.1954892 0.03673482
vt 0.1954892 0.04196848
vt 0.1937447 0.04720215
vt 0.188511 0.05330808
vt 0.1815328 0.05505264
vt 0.1745546 0.05330808
vt 0.1701932 0.04807442
vt 0.1536199 0.03847938
vt 0.1667041 0.04022393
vt 0.1684487 0.02975661
vt 0.1370467 0.02103384
vt 0.1527477 0.01231107
vt 0.1719378 0.02452295
vt 0.1693209 0.1492586
vt 0.163215 0.1361744
vt 0.1501308 0.1483863
vt 0.1553645 0.1762991
vt 0.1536199 0.1204734
vt 0.1431526 0.1265793
vt 0.1457694 0.09953877
vt 0.17281 0.1579813
vt 0.1693209 0.1937447
vt 0.1815328 0.1850219
vt 0.1841496 0.1937447
vt 0.1771714 0.163215
vt 0.188511 0.1771714
vt 0.1937447 0.1893833
vt 0.1300685 0.1806605
vt 0.1466417 0.1815328
vt 0.1300685 0.2007229
vt 0.1501308 0.2033397
vt 0.1274516 0.01056651
vt 0.1248348 0.02452295
vt 0.1370467 0.02103384
vt 0.1440249 0.004460573
vt 0.1047724 0.01143879
vt 0.1056447 0.0262675
vt 0.08122095 0.03237344
vt 0.0829655 0.01318334
vt 0.06726452 0.03062888
vt 0.06551996 0.008821959
vt 0.1501308 0.2033397
vt 0.1300685 0.2007229
vt 0.1265793 0.2138071
vt 0.1440249 0.2172962
vt 0.1379189 0.2268912
vt 0.1230902 0.2242744
vt 0.1466417 0.1815328
vt 0.08122095 0.03237344
vt 0.08209322 0.04545759
vt 0.06726452 0.03062888
vt 0.05854175 0.04720215
vt 0.06203086 0.06551996
vt 0.08209322 0.0681368
vt 0.09866649 0.06551996
vt 0.1030279 0.08994372
vt 0.09517738 0.1100061
vt 0.07860412 0.100411
vt 0.08558234 0.08732689
vt 0.06377541 0.07337046
vt 0.06203086 0.08034867
vt 0.05766947 0.08558234
vt 0.06900907 0.1091338
vt 0.04981898 0.08994372
vt 0.0602863 0.1126229
vt 0.06900907 0.1091338
vt 0.07424273 0.1196011
vt 0.0602863 0.1126229
vt 0.05592492 0.1257071
vt 0.09517738 0.131813
vt 0.09779421 0.1544922
vt 0.1283239 0.1527477
vt 0.03935165 0.09343283
vt 0.05069125 0.1143675
vt 0.05069125 0.1143675
vt 0.04109621 0.1291962
vt 0.1030279 0.1745546
vt 0.1300685 0.1806605
vt 0.02888433 0.09517738
vt 0.03324571 0.1152398
vt 0.1300685 0.2007229
vt 0.02888433 0.1291962
vt 0.03324571 0.1152398
vt 0.02103384 0.09517738
vt 0.0262675 0.1117506
vt 0.01928928 0.07773184
vt 0.02190611 0.07685956
vt 0.01667245 0.06900907
vt 0.018417 0.1283239
vt 0.0262675 0.1117506
vt 0.0262675 0.07511501
vt 0.0262675 0.06726452
vt 0.02713978 0.0716259
vt 0.02975661 0.07685956
vt 0.03673482 0.08122095
vt 0.04458532 0.08034867
vt 0.05069125 0.07685956
vt 0.05156353 0.06988135
vt 0.05854175 0.04720215
vt 0.05243581 0.06203086
vt 0.04720215 0.05330808
vt 0.04807442 0.03237344
vt 0.04109621 0.05243581
vt 0.06726452 0.03062888
vt 0.08645461 0.1675764
vt 0.1030279 0.1745546
vt 0.09779421 0.1544922
vt 0.08558234 0.1518754
vt 0.08732689 0.131813
vt 0.08819917 0.1824051
vt 0.1091338 0.1928724
vt 0.1012833 0.2007229
vt 0.1039001 0.2050843
vt 0.090816 0.2033397
vt 0.09692194 0.2120625
vt 0.08819917 0.1928724
vt 0.1091338 0.1928724
vt 0.1265793 0.2138071
vt 0.1100061 0.2077011
vt 0.1230902 0.2242744
vt 0.1100061 0.2181684
vn -0.4097163 0.2844802 -0.86672
vn -0.05748945 0.3940619 -0.9172841
vn 0.02861041 0.03400773 -0.999012
vn -0.519298 -0.03643769 -0.8538161
vn -0.7228069 0.1514166 -0.6742575
vn -0.7384614 -0.1381921 -0.6599831
vn -0.8480431 -0.1695011 -0.5020878
vn -0.7071524 -0.1303648 -0.6949392
vn -0.3314437 -0.1460193 -0.932107
vn 0.005128622 -0.1538466 -0.9880815
vn -0.3862346 0.2453439 -0.8891734
vn 0.02078313 0.3157892 -0.9486017
vn 0.03643769 0.668016 -0.7432543
vn -0.4253709 0.5662616 -0.7059798
vn -0.8402159 0.2923074 -0.4567205
vn -0.7619433 0.05748945 -0.6450871
vn -0.8950067 -0.04426491 -0.4438509
vn -0.934143 0.04183501 -0.3544385
vn -0.9732793 0.1201076 -0.1957079
vn -0.9654521 0.1748984 -0.1931649
vn -0.9945541 0.1042217 0
vn -0.9860278 0.1665802 0
vn -0.605398 0.7462887 -0.2766702
vn -0.605398 0.7462887 -0.2766702
vn -0.5506071 0.8323886 -0.06293669
vn -0.5506071 0.8323886 0.06293669
vn -0.190553 0.8558704 -0.480807
vn 0.08340126 0.8715249 -0.4832067
vn -0.09662586 0.9889339 -0.1125756
vn -0.09648754 0.9953342 0
vn -0.9967611 0.04183501 0.06868082
vn -0.9889339 0.1357622 0.05981995
vn -0.5349526 0.8245613 0.1841856
vn -0.5349526 0.8323886 0.1447583
vn -0.07314402 0.9967611 0.03342409
vn -0.07314402 0.9967611 0.03342409
vn -0.9263157 -0.0129559 0.3765253
vn -0.8558704 0.2923074 0.426664
vn -0.5036436 0.6601889 0.5572197
vn -0.7149796 -0.0677467 0.6958553
vn -0.7462887 0.05748945 0.6631351
vn -0.37058 -0.2086375 0.905064
vn -0.8793522 -0.2790828 0.3858141
vn -0.9497976 -0.3103919 -0.0392615
vn -0.4410254 0.4723344 0.7631492
vn -0.9727193 -0.2319857 0
vn -0.9497976 -0.3103919 -0.0392615
vn -0.9576249 -0.1225376 -0.2606515
vn -0.9654521 -0.255601 -0.05069762
vn -0.8793522 -0.4591099 -0.1263244
vn -0.8558704 -0.5139008 0.05823918
vn -0.8323886 -0.4591099 0.3103987
vn -0.9654521 -0.2399465 0.1016258
vn -0.9419703 -0.3260464 0.0799108
vn -0.9576249 -0.2869101 0.02524348
vn -0.9497976 -0.2947374 -0.1049498
vn -0.9557555 -0.2941621 0
vn -0.9654521 -0.255601 -0.05069762
vn -0.9654521 -0.255601 -0.05069762
vn -0.9811066 0.1748984 0.08270673
vn -0.9576249 0.2688256 -0.1033801
vn -0.9732648 0.2296859 0
vn -0.9811066 0.1748984 0.08270673
vn -0.8871794 0.3940619 -0.2400582
vn -0.8950067 0.3784073 -0.2361586
vn -0.8245613 0.487989 -0.286296
vn -0.9811066 0.04966217 0.1869854
vn -0.9419703 0.1279349 0.3103622
vn -0.9263157 -0.1381921 0.3504884
vn -0.7228069 -0.3886645 0.5713931
vn -0.9419703 -0.2947374 0.1606918
vn -0.8402159 -0.4199736 0.3430152
vn -0.6758433 -0.521728 0.5206109
vn 0.6302989 0.7763526 0
vn -0.09662586 0.6914979 -0.715887
vn 0.5686916 0.754116 0.3284797
vn -0.9419703 0.1279349 0.3103622
vn -0.2923074 -0.9130912 -0.2842901
vn -0.2062075 -0.936573 -0.2833892
vn -0.487989 -0.8348186 -0.2548423
vn -0.487989 -0.8348186 -0.2548423
vn 0.0677467 -0.936573 -0.3438624
vn 0.0677467 -0.936573 -0.3438624
vn 0.2712556 -0.8974367 -0.3478906
vn 0.2712556 -0.905264 -0.3269826
vn 0.3495282 -0.8896094 -0.2939815
vn 0.3495282 -0.8896094 -0.2939815
vn -0.1122803 0.4410254 0.8904436
vn -0.1122803 0.3862346 0.9155414
vn -0.1592439 -0.05209219 0.985864
vn -0.1514166 -0.0129559 0.9883851
vn -0.2062075 -0.3886645 0.898008
vn -0.2062075 -0.3886645 0.898008
vn -0.08879858 0.6601889 0.7458321
vn 0.3808373 0.6210524 -0.6850232
vn 0.5686916 0.1514166 -0.8084942
vn 0.553037 0.7306342 -0.4004045
vn 0.8113368 0.05748945 -0.5817453
vn 0.8504731 -0.2164648 -0.4794147
vn 0.670446 -0.1616739 -0.7241296
vn 0.3495282 -0.1225376 -0.9288781
vn 0.3182192 0.2688256 -0.9091036
vn 0.3573555 0.6132252 -0.7044515
vn 0.7643732 0.3001347 -0.5706599
vn 0.6313097 0.0809713 -0.7712922
vn 0.8817822 -0.1381921 -0.450958
vn 0.936573 -0.04426491 -0.3476659
vn 0.9835366 0.05748945 -0.1713206
vn 0.9757093 0.1201076 -0.1832089
vn 0.9991246 0.04183223 0
vn 0.9913638 0.1201076 -0.05264935
vn 0.670446 0.6523616 -0.3534494
vn 0.7800277 0.5506071 -0.297302
vn 0.7387947 0.6739307 0
vn 0.7387947 0.6739307 0
vn 0.3964918 0.816734 -0.4192133
vn 0.3103919 0.9419703 -0.1278626
vn 0.3103919 0.9419703 -0.1278626
vn 0.9991911 0.01052588 0.03881159
vn 0.9913638 0.09662586 0.08866358
vn 0.7565459 0.6445343 0.1105163
vn 0.7722005 0.605398 0.1928723
vn 0.3338737 0.9419703 0.03493344
vn 0.341701 0.9263157 0.1586809
vn 0.9522275 -0.0129559 0.3051145
vn 0.9757093 0.06531674 0.2091054
vn 0.4825917 0.5427799 0.6873829
vn 0.8113368 0.339271 0.4760545
vn 0.8113368 0.4253709 0.4009891
vn 0.6939278 -0.05991948 0.7175471
vn 0.6861005 -0.005128622 0.7274887
vn 0.670446 -0.106883 0.7342194
vn 0.9209185 -0.1851557 0.3429673
vn 0.9444003 -0.3260464 0.0424488
vn 0.7565459 0.08879858 0.6478835
vn 0.7565459 0.08879858 0.6478835
vn 0.9757093 -0.2008102 -0.08755914
vn 0.9444003 -0.3260464 -0.0424488
vn 0.9130912 -0.09122854 -0.397419
vn 0.9835366 -0.1695011 -0.06265098
vn 0.9600548 -0.2712556 0.06866805
vn 0.9522275 -0.2947374 0.07995372
vn 0.9522275 -0.2790828 0.123998
vn 0.9835366 -0.1773284 -0.03479095
vn 0.9522275 -0.2634283 0.1544935
vn 0.9913638 -0.1303648 -0.01424069
vn 0.9522275 -0.2947374 0.07995372
vn 0.936573 -0.2869101 0.2012798
vn 0.9507644 -0.3099149 0
vn 0.905264 -0.255601 0.3393601
vn 0.9522275 0.2688256 0.1448984
vn 0.936573 0.2453439 0.2502746
vn 0.9444003 0.3236164 0.05814258
vn 0.936573 0.339271 -0.08789863
vn 0.7800277 0.5506071 -0.297302
vn 0.9209185 0.1748984 0.3483098
vn 0.8817822 0.2296893 0.4119503
vn 0.8348186 0.04183501 0.5489333
vn 0.6626188 -0.1147103 0.7401202
vn 0.8426458 -0.09122854 0.5306838
vn 0.6469643 -0.192983 0.7376956
vn 0.905264 -0.03643769 0.4232841
vn 0.5060735 0.5662616 0.650567
vn 0.4512826 0.1122803 0.8852893
vn 0.4669372 0.1592439 0.8698339
vn 0.341701 -0.2164648 0.9145401
vn 0.341701 -0.2164648 0.9145401
g ManBasic0_Head_0
f 3/3/3 2/2/2 1/1/1
f 4/4/4 3/3/3 1/1/1
f 4/4/4 1/1/1 5/5/5
f 6/6/6 4/4/4 5/5/5
f 4/4/4 6/6/6 7/7/7
f 8/8/8 4/4/4 7/7/7
f 3/3/3 4/4/4 9/9/9
f 9/9/9 4/4/4 8/8/8
f 10/10/10 3/3/3 9/9/9
f 10/10/10 9/9/9 11/11/11
f 11/11/11 9/9/9 8/8/8
f 12/12/12 10/10/10 11/11/11
f 12/12/12 11/11/11 13/13/13
f 11/11/11 14/14/14 13/13/13
f 15/15/15 14/14/14 11/11/11
f 16/16/16 15/15/15 11/11/11
f 16/16/16 8/8/8 7/7/7
f 16/16/16 11/11/11 8/8/8
f 17/17/17 16/16/16 7/7/7
f 18/18/18 15/15/15 16/16/16
f 17/17/17 18/18/18 16/16/16
f 15/15/15 18/18/18 19/19/19
f 19/19/19 18/18/18 17/17/17
f 20/20/20 15/15/15 19/19/19
f 20/20/20 19/19/19 21/21/21
f 22/22/22 20/20/20 21/21/21
f 14/14/14 15/15/15 23/23/23
f 24/24/24 14/14/14 23/23/23
f 24/24/24 23/23/23 25/25/25
f 26/26/26 24/24/24 25/25/25
f 13/13/13 14/14/14 27/27/27
f 28/28/28 13/13/13 27/27/27
f 28/28/28 27/27/27 29/29/29
f 30/30/30 28/28/28 29/29/29
f 22/22/22 21/21/21 31/31/31
f 32/32/32 22/22/22 31/31/31
f 26/26/26 25/25/25 33/33/33
f 34/34/34 26/26/26 33/33/33
f 30/30/30 29/29/29 35/35/35
f 36/36/36 30/30/30 35/35/35
f 32/32/32 31/31/31 37/37/37
f 38/38/38 32/32/32 37/37/37
f 39/39/39 34/34/34 33/33/33
f 38/38/38 39/39/39 33/33/33
f 38/38/38 37/37/37 40/40/40
f 41/41/41 38/38/38 40/40/40
f 40/40/40 37/37/37 42/42/42
f 37/37/37 43/43/43 42/42/42
f 42/42/42 43/43/43 44/44/44
f 45/45/45 39/39/39 38/38/38
f 41/41/41 45/45/45 38/38/38
f 44/44/44 43/43/43 46/46/46
f 46/46/46 37/37/37 31/31/31
f 46/46/46 43/43/43 37/37/37
f 47/47/47 44/44/44 46/46/46
f 46/46/46 48/48/48 47/47/47
f 49/49/49 48/48/48 46/46/46
f 49/49/49 46/46/46 31/31/31
f 31/31/31 50/50/50 49/49/49
f 31/31/31 21/21/21 50/50/50
f 21/21/21 51/51/51 50/50/50
f 51/51/51 21/21/21 19/19/19
f 52/52/52 51/51/51 19/19/19
f 52/52/52 19/19/19 53/53/53
f 53/53/53 19/19/19 17/17/17
f 53/53/53 17/17/17 7/7/7
f 53/53/53 7/7/7 54/54/54
f 55/55/55 53/53/53 54/54/54
f 55/55/55 54/54/54 56/56/56
f 54/54/54 57/57/57 56/56/56
f 56/56/56 57/57/57 58/58/58
f 59/59/59 56/56/56 58/58/58
f 62/62/62 61/61/61 60/60/60
f 63/63/63 62/62/62 60/60/60
f 64/64/64 61/61/61 62/62/62
f 65/65/65 64/64/64 62/62/62
f 65/65/65 66/66/66 64/64/64
f 63/63/63 60/60/60 67/67/67
f 68/68/68 63/63/63 67/67/67
f 69/69/69 68/68/68 67/67/67
f 69/69/69 70/70/70 68/68/68
f 69/69/69 67/67/67 71/71/71
f 72/72/72 69/69/69 71/71/71
f 69/69/69 72/72/72 70/70/70
f 72/72/72 73/73/73 70/70/70
f 63/63/63 75/75/75 74/74/74
f 74/74/74 75/75/75 76/76/76
f 77/77/77 75/75/75 63/63/63
f 80/80/80 79/79/79 78/78/78
f 81/81/81 80/80/80 78/78/78
f 78/78/78 79/79/79 82/82/82
f 79/79/79 83/83/83 82/82/82
f 83/83/83 84/84/84 82/82/82
f 84/84/84 85/85/85 82/82/82
f 84/84/84 86/86/86 85/85/85
f 86/86/86 87/87/87 85/85/85
f 90/90/90 89/89/89 88/88/88
f 91/91/91 90/90/90 88/88/88
f 91/91/91 92/92/92 90/90/90
f 92/92/92 93/93/93 90/90/90
f 89/89/89 94/94/94 88/88/88
f 3/3/3 96/96/96 95/95/95
f 2/2/2 3/3/3 95/95/95
f 95/95/95 96/96/96 97/97/97
f 96/96/96 98/98/98 97/97/97
f 98/98/98 96/96/96 99/99/99
f 96/96/96 100/100/100 99/99/99
f 96/96/96 3/3/3 101/101/101
f 96/96/96 101/101/101 100/100/100
f 3/3/3 10/10/10 101/101/101
f 101/101/101 10/10/10 102/102/102
f 101/101/101 102/102/102 100/100/100
f 10/10/10 12/12/12 102/102/102
f 102/102/102 12/12/12 13/13/13
f 103/103/103 102/102/102 13/13/13
f 103/103/103 104/104/104 102/102/102
f 104/104/104 105/105/105 102/102/102
f 100/100/100 105/105/105 99/99/99
f 102/102/102 105/105/105 100/100/100
f 105/105/105 106/106/106 99/99/99
f 107/107/107 106/106/106 105/105/105
f 104/104/104 107/107/107 105/105/105
f 107/107/107 104/104/104 108/108/108
f 107/107/107 108/108/108 106/106/106
f 104/104/104 109/109/109 108/108/108
f 108/108/108 109/109/109 110/110/110
f 109/109/109 111/111/111 110/110/110
f 104/104/104 103/103/103 112/112/112
f 103/103/103 113/113/113 112/112/112
f 112/112/112 113/113/113 114/114/114
f 113/113/113 115/115/115 114/114/114
f 103/103/103 13/13/13 116/116/116
f 13/13/13 28/28/28 116/116/116
f 116/116/116 28/28/28 117/117/117
f 28/28/28 118/118/118 117/117/117
f 110/110/110 111/111/111 119/119/119
f 111/111/111 120/120/120 119/119/119
f 114/114/114 115/115/115 121/121/121
f 115/115/115 122/122/122 121/121/121
f 117/117/117 118/118/118 123/123/123
f 118/118/118 124/124/124 123/123/123
f 119/119/119 120/120/120 125/125/125
f 120/120/120 126/126/126 125/125/125
f 123/123/123 124/124/124 127/127/127
f 122/122/122 128/128/128 121/121/121
f 128/128/128 129/129/129 121/121/121
f 125/125/125 126/126/126 130/130/130
f 126/126/126 131/131/131 130/130/130
f 125/125/125 130/130/130 132/132/132
f 133/133/133 125/125/125 132/132/132
f 133/133/133 132/132/132 134/134/134
f 128/128/128 135/135/135 129/129/129
f 135/135/135 136/136/136 129/129/129
f 133/133/133 134/134/134 137/137/137
f 125/125/125 133/133/133 137/137/137
f 134/134/134 138/138/138 137/137/137
f 139/139/139 137/137/137 138/138/138
f 139/139/139 140/140/140 137/137/137
f 137/137/137 140/140/140 119/119/119
f 141/141/141 119/119/119 140/140/140
f 110/110/110 119/119/119 141/141/141
f 142/142/142 110/110/110 141/141/141
f 110/110/110 142/142/142 108/108/108
f 142/142/142 143/143/143 108/108/108
f 108/108/108 143/143/143 144/144/144
f 108/108/108 144/144/144 106/106/106
f 106/106/106 144/144/144 99/99/99
f 99/99/99 144/144/144 145/145/145
f 144/144/144 146/146/146 145/145/145
f 145/145/145 146/146/146 147/147/147
f 148/148/148 145/145/145 147/147/147
f 149/149/149 148/148/148 147/147/147
f 148/148/148 150/150/150 145/145/145
f 125/125/125 137/137/137 119/119/119
f 153/153/153 152/152/152 151/151/151
f 154/154/154 153/153/153 151/151/151
f 154/154/154 155/155/155 153/153/153
f 155/155/155 116/116/116 153/153/153
f 103/103/103 116/116/116 155/155/155
f 151/151/151 152/152/152 156/156/156
f 152/152/152 157/157/157 156/156/156
f 156/156/156 157/157/157 158/158/158
f 158/158/158 157/157/157 159/159/159
f 158/158/158 159/159/159 160/160/160
f 159/159/159 161/161/161 160/160/160
f 158/158/158 160/160/160 162/162/162
f 156/156/156 158/158/158 162/162/162
f 127/127/127 163/163/163 123/123/123
f 127/127/127 164/164/164 163/163/163
f 164/164/164 165/165/165 163/163/163
f 164/164/164 166/166/166 165/165/165
f 166/166/166 167/167/167 165/165/165
